<svg xmlns="http://www.w3.org/2000/svg" viewBox="0 0 159.7 59.65"><defs><style>.a{isolation:isolate;}.b,.c{fill:#fff;}.b{mix-blend-mode:luminosity;}</style></defs><g class="a"><path class="b" d="M49.36,0H10.28V10.28H0V59.65H39.08V49.36H49.36V0ZM10.28,12.34V48L2.06,56.14V12.34ZM37,47.31H12.34v-35H37Zm0,10.28H3.21l8.6-8.23H37Z"/><path class="c" d="M61,18.21v8.46H59.16V18.21H56.75V16.45h6.66v1.76Z"/><path class="c" d="M70.69,26.67l-3.9-6.55-.09-.44v7H64.86V16.45h1.62L70.38,23l.09.43v-7h1.84V26.67Z"/><path class="c" d="M74.49,26.67V16.45h1.84v8.47H80.1v1.75Z"/><path class="c" d="M61.7,41.15l-2.18-7.51-.05-.44v7.95H57.63V30.94h2.68l2.25,7.77,0,.38,0-.38,2.25-7.77h2.68V41.15H65.71V33.2l-.06.44-2.17,7.51Z"/><path class="c" d="M69.88,41.15V30.94h6.53v1.75H71.72v2.48h3.77v1.75H71.72V39.4h4.69v1.75Z"/><path class="c" d="M78.16,30.94h3.72a3,3,0,0,1,3,3v4.29a3,3,0,0,1-3,3H78.16Zm3.66,8.46A1.18,1.18,0,0,0,83,38.22V33.87a1.18,1.18,0,0,0-1.18-1.18H80V39.4Z"/><path class="c" d="M87,41.15V30.94h1.84V41.15Z"/><path class="c" d="M90.18,41.15,93,30.94h2.46l2.86,10.21h-2l-.53-2H92.69l-.53,2Zm2.9-3.6h2.35L94.3,33.1l0-.38,0,.38Z"/><path class="c" d="M106.22,35.49h3.34v5.66h-.72l-.52-.8a2.52,2.52,0,0,1-2,.95h-.44a2.91,2.91,0,0,1-3-2.95V33.74a2.91,2.91,0,0,1,3-3h.73a2.91,2.91,0,0,1,3,3v.52l-1.84.18v-.7a1.17,1.17,0,0,0-1.17-1.2h-.67a1.17,1.17,0,0,0-1.17,1.2v4.61a1.17,1.17,0,0,0,1.17,1.2h.67a1.17,1.17,0,0,0,1.17-1.2V37.24h-1.5Z"/><path class="c" d="M118.37,34.42a2.89,2.89,0,0,1-1.87,2.75l2.1,4h-2l-1.94-3.78h-1.2v3.78H111.6V30.94h3.79a2.91,2.91,0,0,1,3,2.94Zm-1.84-.54a1.15,1.15,0,0,0-1.17-1.19h-1.92v2.93h1.92a1.15,1.15,0,0,0,1.17-1.2Z"/><path class="c" d="M126.89,38.35a2.91,2.91,0,0,1-3,2.95h-.72a2.91,2.91,0,0,1-3-2.95V33.74a2.91,2.91,0,0,1,3-3h.72a2.91,2.91,0,0,1,3,3Zm-4.84,0a1.16,1.16,0,0,0,1.16,1.2h.68a1.16,1.16,0,0,0,1.16-1.2V33.74a1.16,1.16,0,0,0-1.16-1.2h-.68a1.16,1.16,0,0,0-1.16,1.2Z"/><path class="c" d="M135.62,30.94v7.41a2.91,2.91,0,0,1-3,2.95h-.73a2.91,2.91,0,0,1-3-2.95V30.94h1.84v7.41a1.17,1.17,0,0,0,1.17,1.2h.67a1.17,1.17,0,0,0,1.17-1.2V30.94Z"/><path class="c" d="M144.58,34.86a2.91,2.91,0,0,1-3,3h-2v3.34h-1.83V30.94h3.79a2.91,2.91,0,0,1,3,2.94Zm-1.84-1a1.16,1.16,0,0,0-1.17-1.19h-1.93v3.37h1.93a1.17,1.17,0,0,0,1.17-1.2Z"/><path class="c" d="M62.09,52.32a2,2,0,0,1-2,2H58.31v3.07h-.72v-8h2.54a2,2,0,0,1,2,2Zm-.72-1a1.28,1.28,0,0,0-1.28-1.28H58.31V53.6h1.78a1.28,1.28,0,0,0,1.28-1.28Z"/><path class="c" d="M65,52.3a1,1,0,0,0-1,1v4.07h-.69V51.65h.23l.38.58a1.67,1.67,0,0,1,1.36-.69h.4v.76Z"/><path class="c" d="M70.45,55.8a1.69,1.69,0,0,1-1.68,1.68h-.46a1.68,1.68,0,0,1-1.68-1.68V53.21a1.68,1.68,0,0,1,1.68-1.67h.46a1.68,1.68,0,0,1,1.68,1.67Zm-.69-2.62a1,1,0,0,0-1-1h-.46a1,1,0,0,0-1,1v2.65a1,1,0,0,0,1,1h.46a1,1,0,0,0,1-1Z"/><path class="c" d="M75.46,57.36l-.37-.58a1.69,1.69,0,0,1-1.36.7h-.18a1.69,1.69,0,0,1-1.68-1.68V51.65h.69v4.18a1,1,0,0,0,1,1H74a1,1,0,0,0,1-1V51.65h.68v5.71Z"/><path class="c" d="M80.76,57.36l-.37-.58a1.69,1.69,0,0,1-1.36.7h-.17a1.68,1.68,0,0,1-1.68-1.68V53.21a1.68,1.68,0,0,1,1.68-1.67H79a1.66,1.66,0,0,1,1.28.59V49.36H81v8Zm-.45-4.18a1,1,0,0,0-1-1h-.45a1,1,0,0,0-1,1v2.65a1,1,0,0,0,1,1h.45a1,1,0,0,0,1-1Z"/><path class="c" d="M82.59,57.36v-8h.69v8Z"/><path class="c" d="M85.69,59.65H85l1-2.78-1.85-5.22h.69L86.36,56l0,.3,0-.3,1.48-4.33h.69Z"/><path class="c" d="M96.62,55.4a2,2,0,0,1-2,2H92.12v-8h2.54a2,2,0,0,1,2,2Zm-.72-4.07a1.28,1.28,0,0,0-1.28-1.28H92.84v6.63h1.78A1.28,1.28,0,0,0,95.9,55.4Z"/><path class="c" d="M97.94,50.28v-.92h.8v.92ZM98,57.36V51.65h.68v5.71Z"/><path class="c" d="M102.13,50a.81.81,0,0,0-.82.82v.81h1.34v.65h-1.34v5.06h-.69V52.3h-1v-.65h1v-.78a1.52,1.52,0,0,1,1.51-1.51h.63V50Z"/><path class="c" d="M105.41,50a.81.81,0,0,0-.82.82v.81h1.34v.65h-1.34v5.06h-.69V52.3h-1v-.65h1v-.78a1.52,1.52,0,0,1,1.51-1.51H106V50Z"/><path class="c" d="M110.54,55.8a1.68,1.68,0,0,1-1.68,1.68h-.46a1.68,1.68,0,0,1-1.67-1.68V53.21a1.67,1.67,0,0,1,1.67-1.67h.46a1.68,1.68,0,0,1,1.68,1.67v1.35h-3.13v1.27a1,1,0,0,0,1,1h.46a1,1,0,0,0,1-1v-.38l.68.12Zm-.68-2.62a1,1,0,0,0-1-1h-.46a1,1,0,0,0-1,1V54h2.45Z"/><path class="c" d="M113.71,52.3a1,1,0,0,0-1,1v4.07H112V51.65h.23l.37.58a1.68,1.68,0,0,1,1.36-.69h.4v.76Z"/><path class="c" d="M119.12,55.8a1.68,1.68,0,0,1-1.68,1.68H117a1.68,1.68,0,0,1-1.68-1.68V53.21A1.68,1.68,0,0,1,117,51.54h.45a1.68,1.68,0,0,1,1.68,1.67v1.35H116v1.27a1,1,0,0,0,1,1h.45a1,1,0,0,0,1-1v-.38l.68.12Zm-.68-2.62a1,1,0,0,0-1-1H117a1,1,0,0,0-1,1V54h2.45Z"/><path class="c" d="M123.74,57.36V53.18a1,1,0,0,0-1-1h-.46a1,1,0,0,0-1,1v4.18h-.68V51.65h.23l.37.58a1.68,1.68,0,0,1,1.36-.69h.18a1.67,1.67,0,0,1,1.67,1.67v4.15Z"/><path class="c" d="M127.93,57.36a1.51,1.51,0,0,1-1.51-1.51V52.3h-1v-.65h1V50.28l.69-.12v1.49h1.45v.65h-1.45v3.59a.82.82,0,0,0,.82.82h.63v.65Z"/><path class="c" d="M135.68,55.5h-2.54l-.52,1.86h-.75l2.35-8h.37l2.36,8h-.74Zm-2.34-.69h2.15l-1.06-3.69,0-.29,0,.29Z"/><path class="c" d="M141,57.36V53.18a1,1,0,0,0-1-1h-.46a1,1,0,0,0-1,1v4.18h-.69V51.65h.23l.38.58a1.68,1.68,0,0,1,1.36-.69H140a1.68,1.68,0,0,1,1.68,1.67v4.15Z"/><path class="c" d="M147,58.08a1.59,1.59,0,0,1-1.68,1.57H145a1.59,1.59,0,0,1-1.68-1.57v0a1.51,1.51,0,0,1,.45-1.1,1.24,1.24,0,0,1-.1-2,1.71,1.71,0,0,1-.58-1.28v-.44a1.68,1.68,0,0,1,1.68-1.67h.28a1.68,1.68,0,0,1,1.36.69l.38-.58H147v2a1.69,1.69,0,0,1-1.68,1.68h-1a.58.58,0,0,0,0,1.16h.94A1.59,1.59,0,0,1,147,58.06Zm-.63-4.9a1,1,0,0,0-1-1h-.57a1,1,0,0,0-1,1v.5a1,1,0,0,0,1,1h.57a1,1,0,0,0,1-1Zm0,4.85a.9.9,0,0,0-1-.88H145a.9.9,0,0,0-1,.88v.09a.9.9,0,0,0,1,.88h.36a.9.9,0,0,0,1-.88Z"/><path class="c" d="M148.41,57.36v-8h.68v8Z"/><path class="c" d="M154.4,55.8a1.69,1.69,0,0,1-1.68,1.68h-.46a1.68,1.68,0,0,1-1.68-1.68V53.21a1.68,1.68,0,0,1,1.68-1.67h.46a1.68,1.68,0,0,1,1.68,1.67v1.35h-3.13v1.27a1,1,0,0,0,1,1h.46a1,1,0,0,0,1-1v-.38l.69.12Zm-.69-2.62a1,1,0,0,0-1-1h-.46a1,1,0,0,0-1,1V54h2.44Z"/><path class="c" d="M158,57.48h-.46a1.73,1.73,0,0,1-1.73-1.68v-.23l.68-.12v.38a1.05,1.05,0,0,0,1.05,1H158a1,1,0,0,0,1-.88c0-1.64-3.13-.67-3.13-2.85a1.58,1.58,0,0,1,1.68-1.56h.4a1.68,1.68,0,0,1,1.68,1.67v0l-.68.11v-.17a1,1,0,0,0-1-1h-.4a.9.9,0,0,0-1,.88c0,1.56,3.13.66,3.13,2.84A1.64,1.64,0,0,1,158,57.48Z"/></g></svg>