<?xml version="1.0" encoding="utf-8"?>
<!-- Generator: Adobe Illustrator 25.0.0, SVG Export Plug-In . SVG Version: 6.00 Build 0)  -->
<svg version="1.1" id="圖層_1" xmlns="http://www.w3.org/2000/svg" xmlns:xlink="http://www.w3.org/1999/xlink" x="0px" y="0px"
	 viewBox="0 0 159.7 59.7" style="enable-background:new 0 0 159.7 59.7;" xml:space="preserve">
<style type="text/css">
	.st0{fill:#1C1C1C;}
</style>
<g>
	<path class="st0" d="M49.4,0H10.3v10.3H0v49.4h39.1V49.4h10.3V0z M10.3,12.3V48l-8.2,8.1V12.3H10.3z M37,47.3H12.3v-35H37V47.3z
		 M37,57.6H3.2l8.6-8.2H37V57.6z"/>
	<path class="st0" d="M61,18.2v8.5h-1.8v-8.5h-2.4v-1.8h6.7v1.8L61,18.2z"/>
	<path class="st0" d="M70.7,26.7l-3.9-6.6l-0.1-0.4v7h-1.8V16.5h1.6l3.9,6.5l0.1,0.4v-7h1.8v10.2H70.7z"/>
	<path class="st0" d="M74.5,26.7V16.5h1.8v8.5h3.8v1.8L74.5,26.7z"/>
	<path class="st0" d="M61.7,41.2l-2.2-7.5l0-0.4v8h-1.8V30.9h2.7l2.2,7.8v0.4v-0.4l2.2-7.8h2.7v10.2h-1.8v-8l-0.1,0.4l-2.2,7.5H61.7
		z"/>
	<path class="st0" d="M69.9,41.2V30.9h6.5v1.8h-4.7v2.5h3.8v1.8h-3.8v2.5h4.7v1.8H69.9z"/>
	<path class="st0" d="M78.2,30.9h3.7c1.7,0,3,1.3,3,3c0,0,0,0,0,0v4.3c0,1.7-1.3,3-3,3h-3.7V30.9z M81.8,39.4c0.7,0,1.2-0.5,1.2-1.2
		v-4.4c0-0.7-0.5-1.2-1.2-1.2l0,0H80v6.7H81.8z"/>
	<path class="st0" d="M87,41.2V30.9h1.8v10.2H87z"/>
	<path class="st0" d="M90.2,41.2L93,30.9h2.5l2.9,10.2h-2l-0.5-2h-3.1l-0.5,2H90.2z M93.1,37.6h2.3l-1.1-4.5v-0.4v0.4L93.1,37.6z"/>
	<path class="st0" d="M106.2,35.5h3.3v5.7h-0.7l-0.5-0.8c-0.5,0.6-1.2,1-2,1h-0.4c-1.6,0-2.9-1.2-3-2.8c0,0,0-0.1,0-0.1v-4.6
		c-0.1-1.6,1.2-2.9,2.8-3c0.1,0,0.1,0,0.2,0h0.7c1.6-0.1,2.9,1.2,3,2.8c0,0.1,0,0.1,0,0.2v0.5l-1.8,0.2v-0.7c0-0.6-0.5-1.2-1.1-1.2
		c0,0,0,0,0,0h-0.7c-0.6,0-1.2,0.5-1.2,1.2c0,0,0,0,0,0v4.6c0,0.6,0.5,1.2,1.1,1.2c0,0,0,0,0,0h0.7c0.6,0,1.2-0.5,1.2-1.2
		c0,0,0,0,0,0v-1.1h-1.5L106.2,35.5z"/>
	<path class="st0" d="M118.4,34.4c0,1.2-0.7,2.3-1.9,2.8l2.1,4h-2l-1.9-3.8h-1.2v3.8h-1.9V30.9h3.8c1.6,0,2.9,1.2,3,2.8
		c0,0,0,0.1,0,0.1L118.4,34.4z M116.5,33.9c0-0.6-0.5-1.2-1.1-1.2c0,0,0,0-0.1,0h-1.9v2.9h1.9c0.6,0,1.2-0.5,1.2-1.1c0,0,0,0,0-0.1
		V33.9z"/>
	<path class="st0" d="M126.9,38.3c0,1.6-1.3,2.9-2.9,3c0,0-0.1,0-0.1,0h-0.7c-1.6,0-2.9-1.2-3-2.8c0,0,0-0.1,0-0.1v-4.6
		c-0.1-1.6,1.2-2.9,2.8-3c0.1,0,0.1,0,0.2,0h0.7c1.6-0.1,2.9,1.2,3,2.8c0,0.1,0,0.1,0,0.2V38.3z M122.1,38.3c0,0.6,0.5,1.2,1.1,1.2
		c0,0,0,0,0,0h0.7c0.6,0,1.2-0.5,1.2-1.2c0,0,0,0,0,0v-4.6c0-0.6-0.5-1.2-1.1-1.2c0,0,0,0,0,0h-0.7c-0.6,0-1.2,0.5-1.2,1.2
		c0,0,0,0,0,0V38.3z"/>
	<path class="st0" d="M135.6,30.9v7.4c0,1.6-1.3,2.9-2.9,3c0,0-0.1,0-0.1,0h-0.7c-1.6,0-2.9-1.2-3-2.8c0,0,0-0.1,0-0.1v-7.4h1.8v7.4
		c0,0.6,0.5,1.2,1.1,1.2c0,0,0,0,0,0h0.7c0.6,0,1.2-0.5,1.2-1.2c0,0,0,0,0,0v-7.4H135.6z"/>
	<path class="st0" d="M144.6,34.9c0.1,1.6-1.2,2.9-2.8,3c-0.1,0-0.1,0-0.2,0h-2v3.3h-1.8V30.9h3.8c1.6,0,2.9,1.2,3,2.8
		c0,0,0,0.1,0,0.1L144.6,34.9z M142.7,33.9c0-0.6-0.5-1.2-1.1-1.2c0,0,0,0,0,0h-1.9V36h1.9c0.6,0,1.2-0.5,1.2-1.2c0,0,0,0,0,0V33.9z
		"/>
	<path class="st0" d="M62.1,52.3c0,1.1-0.9,2-2,2h-1.8v3.1h-0.7v-8h2.5c1.1,0,2,0.9,2,2L62.1,52.3z M61.4,51.3
		c0-0.7-0.6-1.3-1.3-1.3h-1.8v3.6h1.8c0.7,0,1.3-0.6,1.3-1.3V51.3z"/>
	<path class="st0" d="M65,52.3c-0.6,0-1,0.4-1,1v4.1h-0.7v-5.7h0.2l0.4,0.6c0.3-0.4,0.8-0.7,1.4-0.7h0.4v0.8L65,52.3z"/>
	<path class="st0" d="M70.4,55.8c0,0.9-0.8,1.7-1.7,1.7h-0.5c-0.9,0-1.7-0.8-1.7-1.7l0,0v-2.6c0-0.9,0.8-1.7,1.7-1.7h0.5
		c0.9,0,1.7,0.7,1.7,1.7V55.8z M69.8,53.2c0-0.6-0.4-1-1-1h-0.5c-0.6,0-1,0.4-1,1v2.7c0,0.6,0.4,1,1,1h0.5c0.6,0,1-0.4,1-1V53.2z"/>
	<path class="st0" d="M75.5,57.4l-0.4-0.6c-0.3,0.4-0.8,0.7-1.4,0.7h-0.2c-0.9,0-1.7-0.8-1.7-1.7v-4.1h0.7v4.2c0,0.6,0.4,1,1,1H74
		c0.6,0,1-0.4,1-1v-4.2h0.7v5.7H75.5z"/>
	<path class="st0" d="M80.8,57.4l-0.4-0.6c-0.3,0.4-0.8,0.7-1.4,0.7h-0.2c-0.9,0-1.7-0.8-1.7-1.7l0,0v-2.6c0-0.9,0.8-1.7,1.7-1.7H79
		c0.5,0,1,0.2,1.3,0.6v-2.8H81v8H80.8z M80.3,53.2c0-0.6-0.4-1-1-1h-0.4c-0.6,0-1,0.4-1,1v2.7c0,0.6,0.4,1,1,1h0.4c0.6,0,1-0.4,1-1
		V53.2z"/>
	<path class="st0" d="M82.6,57.4v-8h0.7v8H82.6z"/>
	<path class="st0" d="M85.7,59.7H85l1-2.8l-1.8-5.2h0.7l1.5,4.3v0.3V56l1.5-4.3h0.7L85.7,59.7z"/>
	<path class="st0" d="M96.6,55.4c0,1.1-0.9,2-2,2h-2.5v-8h2.5c1.1,0,2,0.9,2,2L96.6,55.4z M95.9,51.3c0-0.7-0.6-1.3-1.3-1.3h-1.8
		v6.6h1.8c0.7,0,1.3-0.6,1.3-1.3c0,0,0,0,0,0V51.3z"/>
	<path class="st0" d="M97.9,50.3v-0.9h0.8v0.9H97.9z M98,57.4v-5.7h0.7v5.7H98z"/>
	<path class="st0" d="M102.1,50c-0.4,0-0.8,0.4-0.8,0.8c0,0,0,0,0,0v0.8h1.3v0.7h-1.3v5.1h-0.7v-5h-1v-0.7h1v-0.8
		c0-0.8,0.7-1.5,1.5-1.5h0.6V50H102.1z"/>
	<path class="st0" d="M105.4,50c-0.4,0-0.8,0.4-0.8,0.8c0,0,0,0,0,0v0.8h1.3v0.7h-1.3v5.1h-0.7v-5h-1v-0.7h1v-0.8
		c0-0.8,0.7-1.5,1.5-1.5h0.6V50H105.4z"/>
	<path class="st0" d="M110.5,55.8c0,0.9-0.8,1.7-1.7,1.7l0,0h-0.5c-0.9,0-1.7-0.8-1.7-1.7v-2.6c0-0.9,0.7-1.7,1.7-1.7h0.5
		c0.9,0,1.7,0.7,1.7,1.7v1.3h-3.1v1.3c0,0.6,0.4,1,1,1h0.5c0.6,0,1-0.4,1-1v-0.4l0.7,0.1L110.5,55.8z M109.9,53.2c0-0.6-0.4-1-1-1
		h-0.5c-0.6,0-1,0.4-1,1V54h2.4L109.9,53.2z"/>
	<path class="st0" d="M113.7,52.3c-0.6,0-1,0.4-1,1v4.1H112v-5.7h0.2l0.4,0.6c0.3-0.4,0.8-0.7,1.4-0.7h0.4v0.8L113.7,52.3z"/>
	<path class="st0" d="M119.1,55.8c0,0.9-0.8,1.7-1.7,1.7l0,0H117c-0.9,0-1.7-0.8-1.7-1.7l0,0v-2.6c0-0.9,0.8-1.7,1.7-1.7h0.4
		c0.9,0,1.7,0.7,1.7,1.7v1.3H116v1.3c0,0.6,0.4,1,1,1h0.4c0.6,0,1-0.4,1-1v-0.4l0.7,0.1L119.1,55.8z M118.4,53.2c0-0.6-0.4-1-1-1
		H117c-0.6,0-1,0.4-1,1V54h2.4L118.4,53.2z"/>
	<path class="st0" d="M123.7,57.4v-4.2c0-0.6-0.4-1-1-1h-0.5c-0.6,0-1,0.4-1,1v4.2h-0.7v-5.7h0.2l0.4,0.6c0.3-0.4,0.8-0.7,1.4-0.7
		h0.2c0.9,0,1.7,0.7,1.7,1.7v4.2L123.7,57.4z"/>
	<path class="st0" d="M127.9,57.4c-0.8,0-1.5-0.7-1.5-1.5l0,0v-3.6h-1v-0.7h1v-1.4l0.7-0.1v1.5h1.4v0.7h-1.4v3.6
		c0,0.5,0.4,0.8,0.8,0.8h0.6v0.7L127.9,57.4z"/>
	<path class="st0" d="M135.7,55.5h-2.5l-0.5,1.9h-0.8l2.4-8h0.4l2.4,8h-0.7L135.7,55.5z M133.3,54.8h2.1l-1.1-3.7v-0.3v0.3
		L133.3,54.8z"/>
	<path class="st0" d="M141,57.4v-4.2c0-0.6-0.4-1-1-1h-0.5c-0.6,0-1,0.4-1,1v4.2h-0.7v-5.7h0.2l0.4,0.6c0.3-0.4,0.8-0.7,1.4-0.7h0.2
		c0.9,0,1.7,0.7,1.7,1.7v4.2L141,57.4z"/>
	<path class="st0" d="M147,58.1c0,0.9-0.7,1.6-1.6,1.6c0,0,0,0-0.1,0H145c-0.9,0-1.6-0.6-1.7-1.5c0,0,0,0,0-0.1l0,0
		c0-0.4,0.2-0.8,0.4-1.1c-0.6-0.4-0.7-1.1-0.4-1.7c0.1-0.1,0.2-0.2,0.3-0.3c-0.4-0.3-0.6-0.8-0.6-1.3v-0.4c0-0.9,0.8-1.7,1.7-1.7
		h0.3c0.5,0,1,0.3,1.4,0.7l0.4-0.6h0.2v2c0,0.9-0.8,1.7-1.7,1.7h-1c-0.3,0-0.6,0.3-0.6,0.6c0,0.3,0.3,0.6,0.6,0.6h0.9
		c0.9-0.1,1.7,0.6,1.7,1.4C147,58,147,58,147,58.1L147,58.1z M146.4,53.2c0-0.6-0.4-1-1-1h-0.6c-0.6,0-1,0.4-1,1v0.5
		c0,0.6,0.4,1,1,1h0.6c0.6,0,1-0.4,1-1V53.2z M146.4,58c0-0.5-0.4-0.9-0.9-0.9c0,0-0.1,0-0.1,0H145c-0.5-0.1-0.9,0.3-1,0.8
		c0,0,0,0.1,0,0.1v0.1c0,0.5,0.4,0.9,0.9,0.9c0,0,0.1,0,0.1,0h0.4c0.5,0.1,0.9-0.3,1-0.8C146.4,58.2,146.4,58.1,146.4,58L146.4,58z"
		/>
	<path class="st0" d="M148.4,57.4v-8h0.7v8H148.4z"/>
	<path class="st0" d="M154.4,55.8c0,0.9-0.8,1.7-1.7,1.7h-0.5c-0.9,0-1.7-0.8-1.7-1.7v-2.6c0-0.9,0.8-1.7,1.7-1.7h0.5
		c0.9,0,1.7,0.7,1.7,1.7v1.3h-3.1v1.3c0,0.6,0.4,1,1,1h0.5c0.6,0,1-0.4,1-1v-0.4l0.7,0.1L154.4,55.8z M153.7,53.2c0-0.6-0.4-1-1-1
		h-0.5c-0.6,0-1,0.4-1,1V54h2.4L153.7,53.2z"/>
	<path class="st0" d="M158,57.5h-0.5c-0.9,0-1.7-0.7-1.7-1.7v-0.2l0.7-0.1v0.4c0,0.6,0.5,1,1.1,1h0.5c0.5,0,0.9-0.4,1-0.9
		c0-1.6-3.1-0.7-3.1-2.8c0-0.9,0.7-1.6,1.6-1.6c0,0,0.1,0,0.1,0h0.4c0.9,0,1.7,0.7,1.7,1.7l0,0l-0.7,0.1v-0.2c0-0.6-0.4-1-1-1h-0.4
		c-0.5-0.1-0.9,0.3-1,0.8c0,0,0,0.1,0,0.1c0,1.6,3.1,0.7,3.1,2.8C159.7,56.8,158.9,57.5,158,57.5C158,57.5,158,57.5,158,57.5z"/>
</g>
</svg>
