<?xml version="1.0" encoding="UTF-8" standalone="no"?>
<!DOCTYPE svg PUBLIC "-//W3C//DTD SVG 1.1//EN" "http://www.w3.org/Graphics/SVG/1.1/DTD/svg11.dtd">
<svg width="100%" height="100%" viewBox="0 0 300 93" version="1.1" xmlns="http://www.w3.org/2000/svg" xmlns:xlink="http://www.w3.org/1999/xlink" xml:space="preserve" xmlns:serif="http://www.serif.com/" style="fill-rule:evenodd;clip-rule:evenodd;stroke-linejoin:round;stroke-miterlimit:2;">
    <g transform="matrix(3.62658,0,0,3.62658,-68.4598,1.95855)">
        <g transform="matrix(24,0,0,24,19.8766,21.2319)">
            <path d="M0.018,-0L0.432,-0L0.454,-0.1L0.149,-0.1L0.282,-0.727L0.173,-0.727L0.018,-0Z" style="fill:rgb(150,152,169);fill-rule:nonzero;"/>
        </g>
        <g transform="matrix(24,0,0,24,32.9675,21.2319)">
            <path d="M0.187,0.013C0.37,0.013 0.447,-0.077 0.503,-0.341L0.585,-0.727L0.356,-0.727L0.335,-0.627L0.455,-0.627L0.395,-0.35C0.352,-0.145 0.303,-0.087 0.19,-0.087C0.116,-0.087 0.104,-0.106 0.097,-0.205L-0.007,-0.185C0.001,-0.042 0.049,0.013 0.187,0.013Z" style="fill:rgb(150,152,169);fill-rule:nonzero;"/>
        </g>
        <g transform="matrix(24,0,0,24,46.0584,21.2319)">
            <path d="M0.22,0.013C0.389,0.013 0.457,-0.045 0.492,-0.202C0.519,-0.333 0.467,-0.383 0.305,-0.433C0.217,-0.465 0.2,-0.471 0.211,-0.529C0.23,-0.614 0.26,-0.64 0.358,-0.64C0.455,-0.64 0.467,-0.624 0.483,-0.541L0.575,-0.618C0.545,-0.707 0.492,-0.74 0.361,-0.74C0.203,-0.74 0.137,-0.687 0.107,-0.546C0.082,-0.431 0.131,-0.386 0.284,-0.336C0.379,-0.298 0.4,-0.288 0.385,-0.219C0.365,-0.119 0.328,-0.087 0.223,-0.087C0.118,-0.087 0.104,-0.106 0.092,-0.196L-0.005,-0.125C0.021,-0.025 0.078,0.013 0.22,0.013Z" style="fill:rgb(150,152,169);fill-rule:nonzero;"/>
        </g>
        <g transform="matrix(24,0,0,24,59.1494,21.2319)">
            <path d="M0.643,-0.727L0.092,-0.727L0.071,-0.627L0.292,-0.627L0.158,-0L0.267,-0L0.401,-0.627L0.622,-0.627L0.643,-0.727Z" style="fill:rgb(150,152,169);fill-rule:nonzero;"/>
        </g>
        <g transform="matrix(24,0,0,24,72.2403,21.2319)">
            <path d="M0.486,-0.727L0.425,-0.435L0.186,-0.435L0.248,-0.727L0.139,-0.727L-0.015,-0L0.094,-0L0.165,-0.335L0.403,-0.335L0.332,-0L0.441,-0L0.595,-0.727L0.486,-0.727Z" style="fill:rgb(150,152,169);fill-rule:nonzero;"/>
        </g>
        <g transform="matrix(24,0,0,24,85.3312,21.2319)">
            <path d="M0.042,-0L0.148,-0L0.272,-0.27L0.285,-0L0.385,-0L0.645,-0.727L0.534,-0.727L0.376,-0.28L0.37,-0.516L0.274,-0.516L0.166,-0.28L0.201,-0.727L0.092,-0.727L0.042,-0Z" style="fill:rgb(150,152,169);fill-rule:nonzero;"/>
        </g>
    </g>
    <g transform="matrix(3.62658,0,0,3.62658,-70.7674,-0.349143)">
        <g transform="matrix(24,0,0,24,19.8766,21.2319)">
            <path d="M0.018,-0L0.432,-0L0.454,-0.1L0.149,-0.1L0.282,-0.727L0.173,-0.727L0.018,-0Z" style="fill:rgb(0,4,50);fill-rule:nonzero;"/>
        </g>
        <g transform="matrix(24,0,0,24,32.9675,21.2319)">
            <path d="M0.187,0.013C0.37,0.013 0.447,-0.077 0.503,-0.341L0.585,-0.727L0.356,-0.727L0.335,-0.627L0.455,-0.627L0.395,-0.35C0.352,-0.145 0.303,-0.087 0.19,-0.087C0.116,-0.087 0.104,-0.106 0.097,-0.205L-0.007,-0.185C0.001,-0.042 0.049,0.013 0.187,0.013Z" style="fill:rgb(0,4,50);fill-rule:nonzero;"/>
        </g>
        <g transform="matrix(24,0,0,24,46.0584,21.2319)">
            <path d="M0.22,0.013C0.389,0.013 0.457,-0.045 0.492,-0.202C0.519,-0.333 0.467,-0.383 0.305,-0.433C0.217,-0.465 0.2,-0.471 0.211,-0.529C0.23,-0.614 0.26,-0.64 0.358,-0.64C0.455,-0.64 0.467,-0.624 0.483,-0.541L0.575,-0.618C0.545,-0.707 0.492,-0.74 0.361,-0.74C0.203,-0.74 0.137,-0.687 0.107,-0.546C0.082,-0.431 0.131,-0.386 0.284,-0.336C0.379,-0.298 0.4,-0.288 0.385,-0.219C0.365,-0.119 0.328,-0.087 0.223,-0.087C0.118,-0.087 0.104,-0.106 0.092,-0.196L-0.005,-0.125C0.021,-0.025 0.078,0.013 0.22,0.013Z" style="fill:rgb(0,4,50);fill-rule:nonzero;"/>
        </g>
        <g transform="matrix(24,0,0,24,59.1494,21.2319)">
            <path d="M0.643,-0.727L0.092,-0.727L0.071,-0.627L0.292,-0.627L0.158,-0L0.267,-0L0.401,-0.627L0.622,-0.627L0.643,-0.727Z" style="fill:rgb(0,4,50);fill-rule:nonzero;"/>
        </g>
        <g transform="matrix(24,0,0,24,72.2403,21.2319)">
            <path d="M0.486,-0.727L0.425,-0.435L0.186,-0.435L0.248,-0.727L0.139,-0.727L-0.015,-0L0.094,-0L0.165,-0.335L0.403,-0.335L0.332,-0L0.441,-0L0.595,-0.727L0.486,-0.727Z" style="fill:rgb(0,4,50);fill-rule:nonzero;"/>
        </g>
        <g transform="matrix(24,0,0,24,85.3312,21.2319)">
            <path d="M0.042,-0L0.148,-0L0.272,-0.27L0.285,-0L0.385,-0L0.645,-0.727L0.534,-0.727L0.376,-0.28L0.37,-0.516L0.274,-0.516L0.166,-0.28L0.201,-0.727L0.092,-0.727L0.042,-0Z" style="fill:rgb(0,4,50);fill-rule:nonzero;"/>
        </g>
    </g>
</svg>
