<svg xmlns="http://www.w3.org/2000/svg" xmlns:xlink="http://www.w3.org/1999/xlink" id="body_1" preserveAspectRatio="xMinYMin meet" viewBox="0 0 931 1303"><defs><clipPath id="1"><path id="" clip-rule="evenodd" transform="matrix(1 0 0 1 0 0)" d="M0 977L0 0L0 0L698 0L698 0L698 977L698 977L0 977z" /></clipPath><clipPath id="2"><path id="" clip-rule="evenodd" transform="matrix(1 0 0 1 0 0)" d="M0 977L698 977L698 977L698 0L698 0L0 0z" /></clipPath><clipPath id="3"><path id="" clip-rule="evenodd" transform="matrix(1 0 0 1 0 0)" d="M16 977L682 977L682 977L682 116L682 116L16 116z" /></clipPath><clipPath id="4"><path id="" clip-rule="evenodd" transform="matrix(1 0 0 1 0 0)" d="M0 977L698 977L698 977L698 0L698 0L0 0z" /></clipPath></defs><g transform="matrix(1.333333 0 0 1.333333 0 0)"><g clip-path="url(#1)"><g clip-path="url(#2)"><path id="1" transform="matrix(1 0 0 -1 0 977)" d="M0 0L698 0L698 977L0 977z" stroke="none" fill="#F2F2F2" fill-rule="nonzero" /><path id="2" transform="matrix(1 0 0 -1 0 977)" d="M0 -7227L698 -7227L698 977L0 977z" stroke="none" fill="#FFFFFF" fill-rule="nonzero" /></g><g clip-path="url(#3)"><path id="26" transform="matrix(1 0 0 -1 0 977)" d="M16 782L656 782L656 799L16 799z" stroke="none" fill="#FFFFFF" fill-rule="nonzero" /><g transform="matrix(1 0 0 1 16 116)"><g transform="matrix(1 0 0 1 0 0)"><image x="0" y="0" xlink:href="img_01.png" width="640" height="76" /></g></g><path id="189" transform="matrix(1 0 0 -1 0 977)" d="M16 612L618 612L618 613L16 613z" stroke="none" fill="#CCCCCC" fill-rule="nonzero" /><path id="190" transform="matrix(1 0 0 -1 0 977)" d="M16 162L618 162L618 163L16 163z" stroke="none" fill="#CCCCCC" fill-rule="nonzero" /><path id="191" transform="matrix(1 0 0 -1 0 977)" d="M16 162L17 162L17 613L16 613z" stroke="none" fill="#CCCCCC" fill-rule="nonzero" /><path id="192" transform="matrix(1 0 0 -1 0 977)" d="M617 162L618 162L618 613L617 613z" stroke="none" fill="#CCCCCC" fill-rule="nonzero" /><g transform="matrix(1 0 0 1 17 365)"><g transform="matrix(1 0 0 1 0 0)"><image x="0" y="0" xlink:href="img_02.png" width="600" height="449" /></g></g></g><g clip-path="url(#4)"></g></g></g></svg>