<svg xmlns="http://www.w3.org/2000/svg" xmlns:xlink="http://www.w3.org/1999/xlink" id="body_9" preserveAspectRatio="xMinYMin meet" viewBox="0 0 931 1303"><defs><clipPath id="1"><path id="" clip-rule="evenodd" transform="matrix(1 0 0 1 0 0)" d="M0 977L0 0L0 0L698 0L698 0L698 977L698 977L0 977z" /></clipPath><clipPath id="2"><path id="" clip-rule="evenodd" transform="matrix(1 0 0 1 0 0)" d="M0 977L698 977L698 977L698 0L698 0L0 0z" /></clipPath><clipPath id="3"><path id="" clip-rule="evenodd" transform="matrix(1 0 0 1 0 0)" d="M16 361L682 361L682 361L682 0L682 0L16 0z" /></clipPath></defs><g transform="matrix(1.333333 0 0 1.333333 0 0)"><g clip-path="url(#1)"><g clip-path="url(#2)"><path id="1" transform="matrix(1 0 0 -1 0 977)" d="M0 573L698 573L698 977L0 977z" stroke="none" fill="#F1F1F1" fill-rule="nonzero" /><path id="2" transform="matrix(1 0 0 -1 0 977)" d="M0 589L698 589L698 8793L0 8793z" stroke="none" fill="#FFFFFF" fill-rule="nonzero" /></g><g clip-path="url(#3)"><path id="3" transform="matrix(1 0 0 -1 0 977)" d="M16 670L682 670L682 977L16 977z" stroke="none" fill="#FFFFFF" fill-rule="nonzero" /><path id="4" transform="matrix(1 0 0 -1 0 977)" d="M16 676L656 676L656 977L16 977z" stroke="none" fill="#EDEDEA" fill-rule="nonzero" /><g transform="matrix(0.3666667 0 0 0.3666667 325 140)"><g transform="matrix(1 0 0 1 0 0)"><image x="0" y="0" xlink:href="img_05.png" width="60" height="60" /></g></g><path id="6" transform="matrix(1 0 0 -1 0 977)" d="M16 976L656 976L656 977L16 977z" stroke="none" fill="#EDEDEA" fill-rule="nonzero" /><path id="7" transform="matrix(1 0 0 -1 0 977)" d="M16 676L656 676L656 677L16 677z" stroke="none" fill="#EDEDEA" fill-rule="nonzero" /><path id="8" transform="matrix(1 0 0 -1 0 977)" d="M16 676L17 676L17 977L16 977z" stroke="none" fill="#EDEDEA" fill-rule="nonzero" /><path id="9" transform="matrix(1 0 0 -1 0 977)" d="M655 676L656 676L656 977L655 977z" stroke="none" fill="#EDEDEA" fill-rule="nonzero" /><path id="10" transform="matrix(1 0 0 -1 0 977)" d="M41.39062 655.5C 41.39062 654.1191 40.27134 653 38.89062 653C 37.50991 653 36.39062 654.1191 36.39062 655.5C 36.39062 656.8809 37.50991 658 38.89062 658C 40.27134 658 41.39062 656.8809 41.39062 655.5z" stroke="#323232" stroke-width="1" fill="none" /><path id="16" transform="matrix(1 0 0 -1 0 977)" d="M41.39062 628.5C 41.39062 627.1191 40.27134 626 38.89062 626C 37.50991 626 36.39062 627.1191 36.39062 628.5C 36.39062 629.8809 37.50991 631 38.89062 631C 40.27134 631 41.39062 629.8809 41.39062 628.5z" stroke="#323232" stroke-width="1" fill="none" /></g></g></g></svg>