<svg xmlns="http://www.w3.org/2000/svg" xmlns:xlink="http://www.w3.org/1999/xlink" id="body_5" preserveAspectRatio="xMinYMin meet" viewBox="0 0 931 1303"><defs><clipPath id="1"><path id="" clip-rule="evenodd" transform="matrix(1 0 0 1 0 0)" d="M0 977L0 0L0 0L698 0L698 0L698 977L698 977L0 977z" /></clipPath><clipPath id="2"><path id="" clip-rule="evenodd" transform="matrix(1 0 0 1 0 0)" d="M0 977L698 977L698 977L698 0L698 0L0 0z" /></clipPath><clipPath id="3"><path id="" clip-rule="evenodd" transform="matrix(1 0 0 1 0 0)" d="M16 977L682 977L682 977L682 0L682 0L16 0z" /></clipPath></defs><g transform="matrix(1.333333 0 0 1.333333 0 0)"><g clip-path="url(#1)"><g clip-path="url(#2)"><path id="1" transform="matrix(1 0 0 -1 0 977)" d="M0 0L698 0L698 977L0 977z" stroke="none" fill="#F1F1F1" fill-rule="nonzero" /><path id="2" transform="matrix(1 0 0 -1 0 977)" d="M0 -3319L698 -3319L698 4885L0 4885z" stroke="none" fill="#FFFFFF" fill-rule="nonzero" /></g><g clip-path="url(#3)"><path id="318" transform="matrix(1 0 0 -1 0 977)" d="M16 147L311 147L311 669L16 669z" stroke="none" fill="#EDEDEA" fill-rule="nonzero" /><g transform="matrix(0.3666667 0 0 0.3666667 153 558)"><g transform="matrix(1 0 0 1 0 0)"><image x="0" y="0" xlink:href="img_05.png" width="60" height="60" /></g></g><path id="320" transform="matrix(1 0 0 -1 0 977)" d="M16 668L311 668L311 669L16 669z" stroke="none" fill="#CCCCCC" fill-rule="nonzero" /><path id="321" transform="matrix(1 0 0 -1 0 977)" d="M16 147L311 147L311 148L16 148z" stroke="none" fill="#CCCCCC" fill-rule="nonzero" /><path id="322" transform="matrix(1 0 0 -1 0 977)" d="M16 147L17 147L17 669L16 669z" stroke="none" fill="#CCCCCC" fill-rule="nonzero" /><path id="323" transform="matrix(1 0 0 -1 0 977)" d="M310 147L311 147L311 669L310 669z" stroke="none" fill="#CCCCCC" fill-rule="nonzero" /><path id="324" transform="matrix(1 0 0 -1 0 977)" d="M311 147L606 147L606 669L311 669z" stroke="none" fill="#EDEDEA" fill-rule="nonzero" /><g transform="matrix(0.3666667 0 0 0.3666667 448 558)"><g transform="matrix(1 0 0 1 0 0)"><image x="0" y="0" xlink:href="img_05.png" width="60" height="60" /></g></g><path id="326" transform="matrix(1 0 0 -1 0 977)" d="M311 668L606 668L606 669L311 669z" stroke="none" fill="#CCCCCC" fill-rule="nonzero" /><path id="327" transform="matrix(1 0 0 -1 0 977)" d="M311 147L606 147L606 148L311 148z" stroke="none" fill="#CCCCCC" fill-rule="nonzero" /><path id="328" transform="matrix(1 0 0 -1 0 977)" d="M311 147L312 147L312 669L311 669z" stroke="none" fill="#CCCCCC" fill-rule="nonzero" /><path id="329" transform="matrix(1 0 0 -1 0 977)" d="M605 147L606 147L606 669L605 669z" stroke="none" fill="#CCCCCC" fill-rule="nonzero" /></g></g></g></svg>