<svg xmlns="http://www.w3.org/2000/svg" xmlns:xlink="http://www.w3.org/1999/xlink" id="body_6" preserveAspectRatio="xMinYMin meet" viewBox="0 0 931 1303"><defs><clipPath id="1"><path id="" clip-rule="evenodd" transform="matrix(1 0 0 1 0 0)" d="M0 977L0 0L0 0L698 0L698 0L698 977L698 977L0 977z" /></clipPath><clipPath id="2"><path id="" clip-rule="evenodd" transform="matrix(1 0 0 1 0 0)" d="M0 977L698 977L698 977L698 0L698 0L0 0z" /></clipPath><clipPath id="3"><path id="" clip-rule="evenodd" transform="matrix(1 0 0 1 0 0)" d="M16 977L682 977L682 977L682 0L682 0L16 0z" /></clipPath></defs><g transform="matrix(1.333333 0 0 1.333333 0 0)"><g clip-path="url(#1)"><g clip-path="url(#2)"><path id="1" transform="matrix(1 0 0 -1 0 977)" d="M0 0L698 0L698 977L0 977z" stroke="none" fill="#F1F1F1" fill-rule="nonzero" /><path id="2" transform="matrix(1 0 0 -1 0 977)" d="M0 -2342L698 -2342L698 5862L0 5862z" stroke="none" fill="#FFFFFF" fill-rule="nonzero" /></g><g clip-path="url(#3)"><path id="26" transform="matrix(1 0 0 -1 0 977)" d="M16 525L616 525L616 926L16 926z" stroke="none" fill="#EDEDEA" fill-rule="nonzero" /><g transform="matrix(0.3666667 0 0 0.3666667 305 241)"><g transform="matrix(1 0 0 1 0 0)"><image x="0" y="0" xlink:href="img_05.png" width="60" height="60" /></g></g><path id="28" transform="matrix(1 0 0 -1 0 977)" d="M16 925L616 925L616 926L16 926z" stroke="none" fill="#CCCCCC" fill-rule="nonzero" /><path id="29" transform="matrix(1 0 0 -1 0 977)" d="M16 525L616 525L616 526L16 526z" stroke="none" fill="#CCCCCC" fill-rule="nonzero" /><path id="30" transform="matrix(1 0 0 -1 0 977)" d="M16 525L17 525L17 926L16 926z" stroke="none" fill="#CCCCCC" fill-rule="nonzero" /><path id="31" transform="matrix(1 0 0 -1 0 977)" d="M615 525L616 525L616 926L615 926z" stroke="none" fill="#CCCCCC" fill-rule="nonzero" /></g></g></g></svg>