<svg xmlns="http://www.w3.org/2000/svg" xmlns:xlink="http://www.w3.org/1999/xlink" id="body_7" preserveAspectRatio="xMinYMin meet" viewBox="0 0 931 1303"><defs><clipPath id="1"><path id="" clip-rule="evenodd" transform="matrix(1 0 0 1 0 0)" d="M0 977L0 0L0 0L698 0L698 0L698 977L698 977L0 977z" /></clipPath><clipPath id="2"><path id="" clip-rule="evenodd" transform="matrix(1 0 0 1 0 0)" d="M0 977L698 977L698 977L698 0L698 0L0 0z" /></clipPath><clipPath id="3"><path id="" clip-rule="evenodd" transform="matrix(1 0 0 1 0 0)" d="M16 977L682 977L682 977L682 0L682 0L16 0z" /></clipPath></defs><g transform="matrix(1.333333 0 0 1.333333 0 0)"><g clip-path="url(#1)"><g clip-path="url(#2)"><path id="1" transform="matrix(1 0 0 -1 0 977)" d="M0 0L698 0L698 977L0 977z" stroke="none" fill="#F1F1F1" fill-rule="nonzero" /><path id="2" transform="matrix(1 0 0 -1 0 977)" d="M0 -1365L698 -1365L698 6839L0 6839z" stroke="none" fill="#FFFFFF" fill-rule="nonzero" /></g><g clip-path="url(#3)"><path id="3" transform="matrix(1 0 0 -1 0 977)" d="M16 446L311 446L311 968L16 968z" stroke="none" fill="#EDEDEA" fill-rule="nonzero" /><g transform="matrix(0.3666667 0 0 0.3666667 153 259)"><g transform="matrix(1 0 0 1 0 0)"><image x="0" y="0" xlink:href="img_05.png" width="60" height="60" /></g></g><path id="5" transform="matrix(1 0 0 -1 0 977)" d="M16 967L311 967L311 968L16 968z" stroke="none" fill="#CCCCCC" fill-rule="nonzero" /><path id="6" transform="matrix(1 0 0 -1 0 977)" d="M16 446L311 446L311 447L16 447z" stroke="none" fill="#CCCCCC" fill-rule="nonzero" /><path id="7" transform="matrix(1 0 0 -1 0 977)" d="M16 446L17 446L17 968L16 968z" stroke="none" fill="#CCCCCC" fill-rule="nonzero" /><path id="8" transform="matrix(1 0 0 -1 0 977)" d="M310 446L311 446L311 968L310 968z" stroke="none" fill="#CCCCCC" fill-rule="nonzero" /><path id="9" transform="matrix(1 0 0 -1 0 977)" d="M311 446L606 446L606 968L311 968z" stroke="none" fill="#EDEDEA" fill-rule="nonzero" /><g transform="matrix(0.3666667 0 0 0.3666667 448 259)"><g transform="matrix(1 0 0 1 0 0)"><image x="0" y="0" xlink:href="img_05.png" width="60" height="60" /></g></g><path id="11" transform="matrix(1 0 0 -1 0 977)" d="M311 967L606 967L606 968L311 968z" stroke="none" fill="#CCCCCC" fill-rule="nonzero" /><path id="12" transform="matrix(1 0 0 -1 0 977)" d="M311 446L606 446L606 447L311 447z" stroke="none" fill="#CCCCCC" fill-rule="nonzero" /><path id="13" transform="matrix(1 0 0 -1 0 977)" d="M311 446L312 446L312 968L311 968z" stroke="none" fill="#CCCCCC" fill-rule="nonzero" /><path id="14" transform="matrix(1 0 0 -1 0 977)" d="M605 446L606 446L606 968L605 968z" stroke="none" fill="#CCCCCC" fill-rule="nonzero" /></g></g></g></svg>