<svg xmlns="http://www.w3.org/2000/svg" xmlns:xlink="http://www.w3.org/1999/xlink" id="body_8" preserveAspectRatio="xMinYMin meet" viewBox="0 0 931 1303"><defs><clipPath id="1"><path id="" clip-rule="evenodd" transform="matrix(1 0 0 1 0 0)" d="M0 977L0 0L0 0L698 0L698 0L698 977L698 977L0 977z" /></clipPath><clipPath id="2"><path id="" clip-rule="evenodd" transform="matrix(1 0 0 1 0 0)" d="M0 977L698 977L698 977L698 0L698 0L0 0z" /></clipPath><clipPath id="3"><path id="" clip-rule="evenodd" transform="matrix(1 0 0 1 0 0)" d="M16 977L682 977L682 977L682 0L682 0L16 0z" /></clipPath></defs><g transform="matrix(1.333333 0 0 1.333333 0 0)"><g clip-path="url(#1)"><g clip-path="url(#2)"><path id="1" transform="matrix(1 0 0 -1 0 977)" d="M0 0L698 0L698 977L0 977z" stroke="none" fill="#F1F1F1" fill-rule="nonzero" /><path id="2" transform="matrix(1 0 0 -1 0 977)" d="M0 -388L698 -388L698 7816L0 7816z" stroke="none" fill="#FFFFFF" fill-rule="nonzero" /></g><g clip-path="url(#3)"><path id="3" transform="matrix(1 0 0 -1 0 977)" d="M16 591L682 591L682 617L16 617z" stroke="none" fill="#FFFFFF" fill-rule="nonzero" /><path id="4" transform="matrix(1 0 0 -1 0 977)" d="M16 550L682 550L682 576L16 576z" stroke="none" fill="#FFFFFF" fill-rule="nonzero" /><path id="5" transform="matrix(1 0 0 -1 0 977)" d="M16 509L682 509L682 535L16 535z" stroke="none" fill="#FFFFFF" fill-rule="nonzero" /><path id="6" transform="matrix(1 0 0 -1 0 977)" d="M16 469L682 469L682 494L16 494z" stroke="none" fill="#FFFFFF" fill-rule="nonzero" /><path id="7" transform="matrix(1 0 0 -1 0 977)" d="M16 444L682 444L682 469L16 469z" stroke="none" fill="#FFFFFF" fill-rule="nonzero" /><path id="8" transform="matrix(1 0 0 -1 0 977)" d="M32 378L666 378L666 444L32 444z" stroke="none" fill="#FFFFFF" fill-rule="nonzero" /><path id="9" transform="matrix(1 0 0 -1 0 977)" d="M32 345L666 345L666 378L32 378z" stroke="none" fill="#FFFFFF" fill-rule="nonzero" /><path id="10" transform="matrix(1 0 0 -1 0 977)" d="M32 312L666 312L666 345L32 345z" stroke="none" fill="#FFFFFF" fill-rule="nonzero" /><path id="11" transform="matrix(1 0 0 -1 0 977)" d="M32 280L666 280L666 312L32 312z" stroke="none" fill="#FFFFFF" fill-rule="nonzero" /><path id="12" transform="matrix(1 0 0 -1 0 977)" d="M16 255L682 255L682 280L16 280z" stroke="none" fill="#FFFFFF" fill-rule="nonzero" /><path id="13" transform="matrix(1 0 0 -1 0 977)" d="M16 230L682 230L682 255L16 255z" stroke="none" fill="#FFFFFF" fill-rule="nonzero" /><path id="14" transform="matrix(1 0 0 -1 0 977)" d="M16 205L682 205L682 230L16 230z" stroke="none" fill="#FFFFFF" fill-rule="nonzero" /><path id="318" transform="matrix(1 0 0 -1 0 977)" d="M372.1691 475L498.9674 475L498.9674 474.125L372.1691 474.125zM199.0326 475L368.8623 475L368.8623 474.125L199.0326 474.125z" stroke="none" fill="#576B95" fill-rule="nonzero" /><path id="337" transform="matrix(1 0 0 -1 0 977)" d="M353.0977 450L479.896 450L479.896 449.125L353.0977 449.125zM218.104 450L349.791 450L349.791 449.125L218.104 449.125z" stroke="none" fill="#576B95" fill-rule="nonzero" /><path id="359" transform="matrix(1 0 0 -1 0 977)" d="M201.9823 420.125L496.0177 420.125L496.0177 421L201.9823 421z" stroke="none" fill="#576B95" fill-rule="nonzero" /><path id="372" transform="matrix(1 0 0 -1 0 977)" d="M363.0383 388L417.1165 388L417.1165 387.125L363.0383 387.125zM295.2548 388L359.7315 388L359.7315 387.125L295.2548 387.125zM280.8835 388L290.7722 388L290.7722 387.125L280.8835 387.125z" stroke="none" fill="#576B95" fill-rule="nonzero" /><path id="389" transform="matrix(1 0 0 -1 0 977)" d="M243.4932 354.125L454.5068 354.125L454.5068 355L243.4932 355z" stroke="none" fill="#576B95" fill-rule="nonzero" /><path id="415" transform="matrix(1 0 0 -1 0 977)" d="M257.5288 322L506.6766 322L506.6766 321.125L257.5288 321.125zM191.3234 322L254.7671 322L254.7671 321.125L191.3234 321.125z" stroke="none" fill="#576B95" fill-rule="nonzero" /></g></g></g></svg>