<?xml version="1.0" encoding="utf-8"?>
<!-- Generator: Adobe Illustrator 23.0.2, SVG Export Plug-In . SVG Version: 6.00 Build 0)  -->
<svg version="1.1" id="Capa_1" xmlns="http://www.w3.org/2000/svg" xmlns:xlink="http://www.w3.org/1999/xlink" x="0px" y="0px"
	 viewBox="0 0 551.7 550.8" style="enable-background:new 0 0 551.7 550.8;" xml:space="preserve">
<style type="text/css">
	.st0{fill:#DF5767;}
	.st1{fill:none;stroke:#DF5767;stroke-width:13;stroke-miterlimit:10;}
</style>
<g>
	<path class="st0" d="M327.9,98.5H137.1v353h276.5V184.3L327.9,98.5z M331.3,118.6l62.3,62.3h-62.3V118.6z M148.9,439.8V110.3h170.6
		v82.4h82.4v247.1H148.9z"/>
	<path class="st0" d="M349,222.1h-94.1c-3.2,0-5.9,2.6-5.9,5.9c0,3.3,2.6,5.9,5.9,5.9H349c3.2,0,5.9-2.6,5.9-5.9
		C354.8,224.7,352.2,222.1,349,222.1z"/>
	<path class="st0" d="M233.5,205.7L208.2,226l-8-8c-2.3-2.3-6-2.3-8.3,0c-2.3,2.3-2.3,6,0,8.3l11.8,11.8c1.1,1.1,2.6,1.7,4.2,1.7
		c1.3,0,2.6-0.4,3.7-1.3l29.4-23.5c2.5-2,2.9-5.7,0.9-8.3C239.7,204.1,236,203.7,233.5,205.7z"/>
	<path class="st0" d="M349,286.8h-94.1c-3.2,0-5.9,2.6-5.9,5.9c0,3.3,2.6,5.9,5.9,5.9H349c3.2,0,5.9-2.6,5.9-5.9
		C354.8,289.4,352.2,286.8,349,286.8z"/>
	<path class="st0" d="M233.5,270.4l-25.3,20.2l-8-8c-2.3-2.3-6-2.3-8.3,0c-2.3,2.3-2.3,6,0,8.3l11.8,11.8c1.1,1.1,2.6,1.7,4.2,1.7
		c1.3,0,2.6-0.4,3.7-1.3l29.4-23.5c2.5-2,2.9-5.7,0.9-8.3C239.7,268.8,236,268.4,233.5,270.4z"/>
	<path class="st0" d="M349,351.5h-94.1c-3.2,0-5.9,2.6-5.9,5.9c0,3.3,2.6,5.9,5.9,5.9H349c3.2,0,5.9-2.6,5.9-5.9
		C354.8,354.1,352.2,351.5,349,351.5z"/>
	<path class="st0" d="M233.5,335.2l-25.3,20.2l-8-8c-2.3-2.3-6-2.3-8.3,0c-2.3,2.3-2.3,6,0,8.3l11.8,11.8c1.1,1.1,2.6,1.7,4.2,1.7
		c1.3,0,2.6-0.4,3.7-1.3l29.4-23.5c2.5-2,2.9-5.7,0.9-8.3C239.7,333.5,236,333.1,233.5,335.2z"/>
</g>
<circle class="st1" cx="276.1" cy="275.3" r="268.5"/>
</svg>
