<?xml version="1.0" encoding="utf-8"?>
<!-- Generator: Adobe Illustrator 23.0.2, SVG Export Plug-In . SVG Version: 6.00 Build 0)  -->
<svg version="1.1" id="Capa_1" xmlns="http://www.w3.org/2000/svg" xmlns:xlink="http://www.w3.org/1999/xlink" x="0px" y="0px"
	 viewBox="0 0 551 550" style="enable-background:new 0 0 551 550;" xml:space="preserve">
<style type="text/css">
	.st0{fill:none;stroke:#DF5767;stroke-width:13;stroke-miterlimit:10;}
	.st1{fill:#DF5767;}
</style>
<circle class="st0" cx="276.3" cy="277.4" r="268.5"/>
<g>
	<path class="st1" d="M424,117.1h-21.9c-9,0-16.2,7.3-16.2,16.2v21.8v32.6v202.6l21.8,38.1v9.4c0,3,2.4,5.4,5.4,5.4
		c3,0,5.4-2.4,5.4-5.4v-9.4l21.8-38.1V187.8v-32.6v-21.8C440.2,124.4,432.9,117.1,424,117.1z M396.7,166h32.6v10.9h-32.6V166z
		 M413,416.1l-12.4-21.7h24.8L413,416.1z M429.3,383.5h-32.6V187.8h32.6L429.3,383.5L429.3,383.5z M396.7,155.1v-21.8
		c0-3,2.4-5.4,5.4-5.4H424c3,0,5.4,2.4,5.4,5.4v21.8H396.7z"/>
	<path class="st1" d="M113.9,117.1v326.3h54.4h195.8V117.1H168.3H113.9z M124.8,432.5V128h32.6v304.5L124.8,432.5L124.8,432.5z
		 M353.2,128v304.5H168.3V128H353.2z"/>
	<path class="st1" d="M326,247.6v-76.1H195.5v76.1H326z M206.4,182.3h108.8v54.4H206.4V182.3z"/>
	<rect x="222.7" y="193.2" class="st1" width="76.1" height="10.9"/>
	<rect x="222.7" y="215" class="st1" width="76.1" height="10.9"/>
</g>
</svg>
