<?xml version="1.0" encoding="utf-8"?>
<!-- Generator: Adobe Illustrator 23.0.2, SVG Export Plug-In . SVG Version: 6.00 Build 0)  -->
<svg version="1.1" id="Capa_1" xmlns="http://www.w3.org/2000/svg" xmlns:xlink="http://www.w3.org/1999/xlink" x="0px" y="0px"
	 viewBox="0 0 552 550" style="enable-background:new 0 0 552 550;" xml:space="preserve">
<style type="text/css">
	.st0{fill:none;stroke:#DF5767;stroke-width:13;stroke-miterlimit:10;}
	.st1{fill:#DF5767;}
</style>
<circle class="st0" cx="276.3" cy="276.4" r="268.5"/>
<g>
	<path class="st1" d="M414.6,440.9l-16-16V218.6l-2.9-2.9l-26.5-26.5V97.3H133.4v306.5h29.5v29.5h227.4l16,16
		c1.2,1.1,2.7,1.7,4.2,1.7s3-0.6,4.2-1.7C416.9,446.9,416.9,443.2,414.6,440.9z M378.5,215.2h-68.3v-68.3l58.9,58.9L378.5,215.2z
		 M145.2,392V109.1h212.2v68.3l-47.7-47.7l-2.9-2.9H162.9V392L145.2,392L145.2,392z M174.7,421.5v-17.7V138.6h123.8V227h88.4v186.2
		l-44.3-44.3c10.3-12.1,16.5-27.8,16.5-44.9c0-38.4-31.3-69.7-69.7-69.7c-38.4,0-69.7,31.3-69.7,69.7c0,38.4,31.3,69.7,69.7,69.7
		c17.1,0,32.8-6.2,44.9-16.5l44.3,44.3L174.7,421.5L174.7,421.5z M289.3,381.9c-31.9,0-57.9-26-57.9-57.9s26-57.9,57.9-57.9
		s57.9,26,57.9,57.9S321.3,381.9,289.3,381.9z"/>
	<path class="st1" d="M255,309.5h35.4c3.3,0,5.9-2.6,5.9-5.9s-2.6-5.9-5.9-5.9H255c-3.3,0-5.9,2.6-5.9,5.9S251.7,309.5,255,309.5z"
		/>
	<path class="st1" d="M325.7,333.1H255c-3.3,0-5.9,2.6-5.9,5.9c0,3.3,2.6,5.9,5.9,5.9h70.7c3.3,0,5.9-2.6,5.9-5.9
		C331.6,335.7,329,333.1,325.7,333.1z"/>
</g>
</svg>
