<?xml version="1.0" encoding="utf-8"?>
<!-- Generator: Adobe Illustrator 23.0.2, SVG Export Plug-In . SVG Version: 6.00 Build 0)  -->
<svg version="1.1" id="Capa_1" xmlns="http://www.w3.org/2000/svg" xmlns:xlink="http://www.w3.org/1999/xlink" x="0px" y="0px"
	 viewBox="0 0 551 552" style="enable-background:new 0 0 551 552;" xml:space="preserve">
<style type="text/css">
	.st0{fill:none;stroke:#DF5767;stroke-width:13;stroke-miterlimit:10;}
	.st1{fill:none;stroke:#DF5767;stroke-width:11;stroke-miterlimit:10;}
</style>
<circle class="st0" cx="276.3" cy="277.4" r="268.5"/>
<path class="st1" d="M429.7,496.3c-3.6,2.6-7.2,5.1-10.9,7.5c-1.7,1.1-3.4,2.2-5.1,3.3c-4.8,3-9.7,5.8-14.7,8.5
	c-1.1,0.6-2.2,1.1-3.3,1.7c-11.5,5.9-23.4,11-35.7,15.1c-0.4,0.1-0.9,0.3-1.3,0.4c-6.4,2.1-12.9,4-19.5,5.6c0,0,0,0-0.1,0
	c-6.6,1.6-13.3,3-20.1,4.1c-0.2,0-0.4,0.1-0.6,0.1c-6.3,1-12.7,1.8-19.2,2.3c-1.1,0.1-2.3,0.2-3.4,0.3c-6.3,0.5-12.7,0.8-19.1,0.8
	c-6.5,0-12.9-0.3-19.4-0.8c-1.1-0.1-2.2-0.2-3.3-0.3c-6.5-0.6-12.9-1.3-19.3-2.4c-0.3-0.1-0.6-0.1-0.9-0.2
	c-13.5-2.3-26.8-5.6-39.8-9.9c-0.4-0.1-0.8-0.3-1.2-0.4c-6.4-2.2-12.8-4.6-19-7.3c0,0-0.1,0-0.1-0.1c-5.9-2.5-11.7-5.4-17.4-8.3
	c-0.7-0.4-1.5-0.8-2.2-1.2c-5.2-2.8-10.3-5.8-15.4-9c-1.5-0.9-3-1.9-4.4-2.9c-4.6-3-9.2-6.2-13.7-9.5c-0.5-0.3-0.9-0.7-1.4-1.1
	c0.3-0.2,0.7-0.4,1-0.6l80.8-44.1c13.9-7.6,22.5-22.1,22.5-38l0-36.8l-2.4-2.8c-0.2-0.3-22.3-27.1-30.7-63.5l-0.9-4l-3.5-2.3
	c-4.9-3.2-7.9-8.5-7.9-14.2v-36.2c0-4.8,2-9.2,5.7-12.5l3.4-3v-56.9l-0.1-1.3c0-0.2-3-24.8,14.3-44.6c14.8-16.8,40.1-25.4,75.3-25.4
	c35,0,60.3,8.5,75.1,25.2c17.3,19.5,14.5,44.6,14.4,44.8l-0.1,58.3l3.4,3c3.7,3.3,5.7,7.7,5.7,12.5v36.2c0,7.3-5,13.9-12.1,16.1
	l-5.1,1.6l-1.6,5.1c-6,18.7-14.6,36-25.5,51.4c-2.7,3.8-5.3,7.1-7.5,9.7l-2.5,2.9v37.8c0,16.5,9.2,31.3,23.9,38.7l86.5,43.3
	c0.6,0.3,1.1,0.6,1.6,0.8C431.9,494.7,430.8,495.5,429.7,496.3z"/>
</svg>
