<svg xmlns="http://www.w3.org/2000/svg" xmlns:xlink="http://www.w3.org/1999/xlink" width="24" height="24" viewBox="0 0 24 24">
    <defs>
        <path id="prefix__a" d="M17.024 9.481c4.706 0 4.118 5.059 4.118 5.177h-6c0 2.117 2 2 2 2 1.857 0 1.888-1.117 1.883-1.276l-.001-.019h2c0 3.295-4 3.059-4 3.059-4.823 0-4.47-4.471-4.47-4.471s0-4.47 4.47-4.47zM8.2 6.658c1.883 0 3.53.822 3.53 2.942 0 2.116-1.764 2.234-1.764 2.234 2.352.001 2.116 2.941 2.116 2.941 0 3.53-3.882 3.647-3.882 3.647H2.32V6.658zm.236 6.352H5.024v3.06h3.177c.471-.001 1.412-.118 1.412-1.412 0-1.648-1.177-1.648-1.177-1.648zm8.783-1.77l-.195.006c-1.764 0-2 1.765-2 1.765h3.883s0-1.883-1.883-1.765zm-8.783-2.7H5.025v2.588H8.2c.59 0 1.06-.235 1.06-1.412 0-1.176-.824-1.176-.824-1.176zm11.53-1.882v1.176h-5.882V6.658h5.882z"/>
    </defs>
    <g fill="none" fill-rule="evenodd">
        <mask id="prefix__b" fill="#fff">
            <use xlink:href="#prefix__a"/>
        </mask>
        <use fill="#000" xlink:href="#prefix__a"/>
        <g fill="#121212" mask="url(#prefix__b)">
            <path d="M0 0H24V24H0z"/>
        </g>
    </g>
</svg>
