<svg xmlns="http://www.w3.org/2000/svg" xmlns:xlink="http://www.w3.org/1999/xlink" width="24" height="24" viewBox="0 0 24 24">
    <defs>
        <path id="prefix__a" d="M11.857 3C6.987 3 3 6.986 3 11.859c0 4.872 3.987 8.858 8.859 8.858s8.858-3.986 8.858-8.858C20.717 6.986 16.73 3 11.858 3h-.001zm2.437 8.194s-.222-.664-.332-.886c1.882-.886 3.1-1.882 3.543-2.436.775.997 1.218 2.215 1.329 3.544-.886-.222-2.88-.554-4.54-.222zm-1.218-2.547c-.886-1.55-1.883-2.879-2.326-3.654 2.104-.553 3.987.11 5.426 1.44-.443.553-1.328 1.44-3.1 2.214zm-4.43-2.879c.444.554 1.33 1.883 2.215 3.544-2.436.553-4.65.664-5.647.664.443-1.772 1.772-3.322 3.433-4.208h-.001zm3.212 5.315c.11.222.221.443.332.554-3.1.997-5.094 3.544-5.758 4.54-.886-1.218-1.44-2.657-1.44-4.097.997-.11 3.876-.221 6.866-.997zm1.107 2.437c.775 2.214 1.218 3.986 1.329 4.872-2.325.775-4.983.332-6.423-.886.443-.775 1.883-2.768 5.094-3.986zm3.211 3.764c-.221-.885-.553-2.436-1.218-4.318 1.218-.222 2.99 0 3.655.221-.315 1.606-1.176 3.054-2.437 4.097z"/>
    </defs>
    <g fill="none" fill-rule="evenodd">
        <mask id="prefix__b" fill="#fff">
            <use xlink:href="#prefix__a"/>
        </mask>
        <use fill="#000" xlink:href="#prefix__a"/>
        <g fill="#121212" mask="url(#prefix__b)">
            <path d="M0 0H24V24H0z"/>
        </g>
    </g>
</svg>
