<svg xmlns="http://www.w3.org/2000/svg" xmlns:xlink="http://www.w3.org/1999/xlink" width="24" height="24" viewBox="0 0 24 24">
    <defs>
        <path id="prefix__a" d="M11.804 3C6.962 3 3 6.961 3 11.803c0 3.852 2.531 7.153 6.052 8.364.44.11.55-.22.55-.44v-1.541c-2.42.55-2.97-1.1-2.97-1.1-.44-.991-.99-1.321-.99-1.321-.771-.55.11-.55.11-.55.88.11 1.32.88 1.32.88.77 1.43 2.09.99 2.53.77.11-.55.33-.99.55-1.21-1.98-.22-3.96-.99-3.96-4.402 0-.99.33-1.76.88-2.31-.11-.221-.44-1.101.11-2.312 0 0 .77-.22 2.42.88.661-.22 1.431-.33 2.202-.33.77 0 1.54.11 2.2.33 1.651-1.1 2.421-.88 2.421-.88.44 1.21.22 2.091.11 2.311.55.66.88 1.43.88 2.311 0 3.411-2.09 4.072-4.07 4.292.33.44.66.99.66 1.76v2.423c0 .22.11.55.66.44 3.521-1.21 6.052-4.512 6.052-8.364-.11-4.842-4.071-8.803-8.913-8.803V3z"/>
    </defs>
    <g fill="none" fill-rule="evenodd">
        <mask id="prefix__b" fill="#fff">
            <use xlink:href="#prefix__a"/>
        </mask>
        <use fill="#000" xlink:href="#prefix__a"/>
        <g fill="#121212" mask="url(#prefix__b)">
            <path d="M0 0H24V24H0z"/>
        </g>
    </g>
</svg>
