<svg xmlns="http://www.w3.org/2000/svg" xmlns:xlink="http://www.w3.org/1999/xlink" width="24" height="24" viewBox="0 0 24 24">
    <defs>
        <path id="prefix__a" d="M19.942 3H3.775c-.207-.005-.407.075-.553.222-.147.146-.227.346-.222.553v16.278c0 .332.332.664.775.664h16.278c.207.005.407-.075.554-.221.146-.147.226-.347.221-.554V3.775c-.11-.443-.443-.775-.886-.775zM8.204 18.06H5.658V9.643h2.657v8.415h-.11v.002zM6.986 8.535c-.886 0-1.55-.775-1.55-1.55 0-.886.664-1.55 1.55-1.55s1.55.664 1.55 1.55c-.11.775-.775 1.55-1.55 1.55zm11.074 9.523h-2.658v-4.097c0-.996 0-2.214-1.329-2.214s-1.55 1.107-1.55 2.214v4.208H9.865V9.644h2.547v1.107c.332-.664 1.218-1.329 2.436-1.329 2.658 0 3.1 1.772 3.1 3.987v4.65h.112z"/>
    </defs>
    <g fill="none" fill-rule="evenodd">
        <mask id="prefix__b" fill="#fff">
            <use xlink:href="#prefix__a"/>
        </mask>
        <use fill="#000" fill-rule="nonzero" xlink:href="#prefix__a"/>
        <g fill="#121212" mask="url(#prefix__b)">
            <path d="M0 0H24V24H0z"/>
        </g>
    </g>
</svg>
