<svg xmlns="http://www.w3.org/2000/svg" xmlns:xlink="http://www.w3.org/1999/xlink" width="24" height="24" viewBox="0 0 24 24">
    <defs>
        <path id="prefix__a" d="M20.753 7.204c-.664.333-1.329.443-2.104.554.775-.443 1.329-1.107 1.55-1.993-.664.443-1.44.664-2.325.886-.71-.698-1.662-1.095-2.658-1.108-1.882 0-3.543 1.661-3.543 3.655 0 .332 0 .553.11.775-2.99-.111-5.757-1.55-7.53-3.765-.33.552-.441 1.107-.441 1.882 0 1.218.664 2.326 1.66 2.99-.553 0-1.106-.221-1.66-.443 0 1.772 1.218 3.211 2.879 3.544-.332.11-.664.11-.997.11-.221 0-.443 0-.664-.11.443 1.44 1.772 2.546 3.433 2.546-1.218.997-2.769 1.55-4.54 1.55h-.887c1.66.997 3.543 1.662 5.536 1.662 6.644 0 10.299-5.537 10.299-10.298v-.443c.775-.554 1.44-1.218 1.882-1.994z"/>
    </defs>
    <g fill="none" fill-rule="evenodd">
        <mask id="prefix__b" fill="#fff">
            <use xlink:href="#prefix__a"/>
        </mask>
        <use fill="#000" xlink:href="#prefix__a"/>
        <g fill="#121212" mask="url(#prefix__b)">
            <path d="M0 0H24V24H0z"/>
        </g>
    </g>
</svg>
